{"title":"Lost S01E22 - AVM","uid":5044070,"size":140591438,"categoryP":"video","categoryS":"tv_shows","magnet":"?xt=urn:btih:c044774f4ed1e0f5d3b01acdd2a4cd8f1ae4a4d8&amp;dn=Lost+S01E22+-+AVM&amp;tr=udp%3A%2F%2Ftracker.openbittorrent.com%3A80&amp;tr=udp%3A%2F%2Fopen.demonii.com%3A1337&amp;tr=udp%3A%2F%2Ftracker.coppersurfer.tk%3A6969&amp;tr=udp%3A%2F%2Fexodus.desync.com%3A6969","seeders":1,"leechers":1,"uploader":"SysProfile","files":1,"time":1249536026,"description":"AVIDMobile - http://www.avidmobile.com.ar (Mobile media)\n\nVideo\nID                               : 1\nFormat                           : MPEG-4 Visual\nFormat profile                   : Simple@L1\nFormat settings, BVOP            : No\nFormat settings, QPel            : No\nFormat settings, GMC             : No warppoints\nFormat settings, Matrix          : Default (H.263)\nCodec ID                         : 20\nDuration                         : 43mn 17s\nBit rate mode                    : Variable\nBit rate                         : 365 Kbps\nMaximum bit rate                 : 1 474 Kbps\nWidth                            : 320 pixels\nHeight                           : 240 pixels\nDisplay aspect ratio             : 4/3\nFrame rate mode                  : Variable\nFrame rate                       : 23.976 fps\nMinimum frame rate               : 23.974 fps\nMaximum frame rate               : 23.981 fps\nResolution                       : 24 bits\nColorimetry                      : 4:2:0\nScan type                        : Progressive\nBits/(Pixel*Frame)               : 0.198\nStream size                      : 113 MiB (84%)\n\nAudio\nID                               : 2\nFormat                           : AAC\nFormat/Info                      : Advanced Audio Codec\nFormat version                   : Version 4\nFormat profile                   : LC\nFormat settings, SBR             : No\nCodec ID                         : 40\nDuration                         : 43mn 17s\nBit rate mode                    : Variable\nBit rate                         : 66.15 Kbps\nMaximum bit rate                 : 98.4 Kbps\nChannel(s)                       : 2 channels\nChannel positions                : L R\nSampling rate                    : 22.05 KHz\nResolution                       : 16 bits\nStream size                      : 20.3 MiB (15%)\n","torrent":{"xt":"urn:btih:c044774f4ed1e0f5d3b01acdd2a4cd8f1ae4a4d8","amp;dn":"Lost+S01E22+-+AVM","amp;tr":["udp%3A%2F%2Ftracker.openbittorrent.com%3A80","udp%3A%2F%2Fopen.demonii.com%3A1337","udp%3A%2F%2Ftracker.coppersurfer.tk%3A6969","udp%3A%2F%2Fexodus.desync.com%3A6969"],"infoHash":"c044774f4ed1e0f5d3b01acdd2a4cd8f1ae4a4d8","infoHashBuffer":{"type":"Buffer","data":[192,68,119,79,78,209,224,245,211,176,26,205,210,164,205,143,26,228,164,216]},"announce":[],"urlList":[]}}